<?xml version="1.0" encoding="UTF-8"?><svg id="a" xmlns="http://www.w3.org/2000/svg" viewBox="0 0 80 80"><rect x="21" y="19" width="38" height="42" rx="5" ry="5" fill="#fff"/><path d="M44.48,34.69l-7-3.86c-.31-.17-.69-.17-.99,.02-.3,.18-.49,.51-.49,.86v7.71c0,.35,.19,.68,.49,.86,.16,.09,.33,.14,.51,.14,.17,0,.33-.04,.48-.12l7-3.86c.32-.18,.52-.51,.52-.88s-.2-.7-.52-.88Z" fill="#1d59f9"/><g><path d="M54,18H26c-3.31,0-6,2.69-6,6V56c0,3.31,2.69,6,6,6h28c3.31,0,6-2.69,6-6V24c0-3.31-2.69-6-6-6Zm4,38c0,2.21-1.79,4-4,4H26c-2.21,0-4-1.79-4-4v-5H58v5Zm0-6H22V24c0-2.21,1.79-4,4-4h28c2.21,0,4,1.79,4,4v26Z" fill="#220e27"/><path d="M35,55.62h14c.28,0,.5-.22,.5-.5s-.22-.5-.5-.5h-14c-.28,0-.5,.22-.5,.5s.22,.5,.5,.5Z" fill="#220e27"/><path d="M52.08,55.51c.02,.06,.05,.12,.09,.17,.04,.05,.08,.11,.12,.15,.19,.19,.45,.3,.71,.3s.52-.11,.71-.3c.04-.04,.08-.1,.12-.15,.04-.05,.07-.11,.09-.17,.03-.06,.05-.13,.06-.19,.01-.07,.02-.13,.02-.2,0-.26-.11-.52-.29-.7-.1-.09-.21-.17-.33-.22-.24-.1-.52-.1-.76,0-.13,.05-.23,.13-.33,.22-.18,.19-.29,.44-.29,.7,0,.07,0,.13,.02,.2,.01,.06,.03,.13,.06,.19Z" fill="#220e27"/><path d="M28,56.12c.26,0,.52-.1,.71-.29,.18-.18,.29-.44,.29-.7,0-.14-.03-.27-.08-.39s-.12-.23-.21-.32c-.37-.37-1.04-.37-1.42,0-.09,.09-.16,.2-.21,.32s-.08,.25-.08,.39c0,.26,.11,.52,.29,.7,.19,.19,.44,.29,.71,.29Z" fill="#220e27"/><path d="M31,56.13c.26,0,.52-.11,.71-.3,.04-.04,.08-.1,.12-.15,.04-.05,.07-.11,.09-.17,.03-.06,.05-.13,.06-.19,.01-.06,.02-.13,.02-.19,0-.27-.11-.53-.29-.71-.05-.05-.1-.09-.15-.13-.06-.03-.12-.06-.18-.09-.06-.02-.12-.04-.18-.06-.33-.06-.68,.05-.91,.28-.18,.18-.29,.44-.29,.71s.11,.52,.29,.7c.19,.19,.45,.3,.71,.3Z" fill="#220e27"/></g></svg>