<?xml version="1.0" encoding="UTF-8"?><svg id="a" xmlns="http://www.w3.org/2000/svg" viewBox="0 0 80 80"><rect x="21" y="19" width="38" height="42" rx="5" ry="5" fill="#fff"/><g><path d="M54,18H26c-3.31,0-6,2.69-6,6V56c0,3.31,2.69,6,6,6h28c3.31,0,6-2.69,6-6V24c0-3.31-2.69-6-6-6Zm4,38c0,2.21-1.79,4-4,4H26c-2.21,0-4-1.79-4-4V24c0-2.21,1.79-4,4-4h28c2.21,0,4,1.79,4,4V56Z" fill="#220e27"/><path d="M39.5,37.85c-1.42,0-2.57,1.15-2.57,2.57s1.15,2.57,2.57,2.57,2.57-1.15,2.57-2.57-1.15-2.57-2.57-2.57Z" fill="#220e27"/><path d="M39.5,24.51c-4.2,0-8.17,1.85-10.88,5.07-.18,.21-.15,.53,.06,.7,.21,.18,.53,.15,.71-.06,2.52-2.99,6.21-4.71,10.12-4.71s7.59,1.72,10.12,4.71c.1,.12,.24,.18,.38,.18,.11,0,.23-.04,.32-.12,.21-.18,.24-.49,.06-.7-2.71-3.22-6.68-5.07-10.88-5.07Z" fill="#220e27"/><path d="M39.5,28.79c-3.09,0-5.95,1.4-7.85,3.85-.17,.22-.13,.53,.09,.7,.22,.17,.53,.13,.7-.09,1.7-2.2,4.27-3.46,7.06-3.46s5.35,1.26,7.06,3.46c.1,.13,.25,.19,.4,.19,.11,0,.21-.03,.31-.1,.22-.17,.26-.48,.09-.7-1.89-2.45-4.75-3.85-7.85-3.85Z" fill="#220e27"/><path d="M39.5,33.07c-2.18,0-4.21,1.09-5.42,2.9-.15,.23-.09,.54,.14,.69,.23,.15,.54,.09,.69-.14,1.03-1.54,2.74-2.46,4.59-2.46s3.56,.92,4.59,2.46c.1,.14,.25,.22,.42,.22,.1,0,.19-.03,.28-.08,.23-.15,.29-.46,.14-.69-1.21-1.82-3.24-2.9-5.42-2.9Z" fill="#220e27"/></g><g><path d="M34.6,53.01h0c-.22-1.21-.88-3.75-1.22-5.01h-1.28c-.38,1.58-1.02,3.87-1.27,5.07h0c-.08-.72-.35-2.07-.97-5.07h-1.51l1.68,6.56h1.47c.35-1.32,.94-3.53,1.18-4.7h0c.23,1.12,.81,3.25,1.15,4.7h1.48l1.77-6.56h-1.37c-.24,1.02-.88,3.56-1.09,5.01Z" fill="#1d59f9"/><rect x="38.82" y="48" width="1.42" height="6.56" fill="#1d59f9"/><polygon points="42.7 54.56 44.09 54.56 44.09 51.93 47.08 51.93 47.08 50.77 44.09 50.77 44.09 49.16 47.28 49.16 47.28 48 42.7 48 42.7 54.56" fill="#1d59f9"/><rect x="49.24" y="48" width="1.42" height="6.56" fill="#1d59f9"/></g></svg>