<?xml version="1.0" encoding="UTF-8"?><svg id="a" xmlns="http://www.w3.org/2000/svg" viewBox="0 0 80 80"><rect x="13" y="19" width="54" height="42" rx="4" ry="4" fill="#fff"/><rect x="19" y="46" width="17" height="5" rx="1" ry="1" fill="#1d59f9"/><g><path d="M63,18H17c-2.76,0-5,2.24-5,5V57c0,2.76,2.24,5,5,5H63c2.76,0,5-2.24,5-5V23c0-2.76-2.24-5-5-5Zm-46,2H63c1.65,0,3,1.35,3,3v3.5H14v-3.5c0-1.65,1.35-3,3-3ZM63,60H17c-1.65,0-3-1.35-3-3V27.5h52v29.5c0,1.65-1.35,3-3,3Z" fill="#220e27"/><circle cx="18" cy="23" r="1" fill="#220e27"/><circle cx="21" cy="23" r="1" fill="#220e27"/><circle cx="24" cy="23" r="1" fill="#220e27"/><path d="M35,36h-15c-.55,0-1,.45-1,1s.45,1,1,1h15c.55,0,1-.45,1-1s-.45-1-1-1Z" fill="#220e27"/><path d="M27,40h-7c-.55,0-1,.45-1,1s.45,1,1,1h7c.55,0,1-.45,1-1s-.45-1-1-1Z" fill="#220e27"/><path d="M50.03,33.62c-.12-.13-.29-.2-.47-.16-.17,.03-.32,.15-.38,.32l-6.65,18.05c-.06,.17-.03,.36,.09,.5,.1,.11,.24,.17,.38,.17,.03,0,.07,0,.1,0l19-3.8c.17-.03,.32-.16,.38-.33,.06-.17,.02-.35-.09-.49l-12.35-14.25Zm-6.25,17.71l6.05-16.42,11.23,12.96-17.28,3.46Z" fill="#220e27"/></g></svg>