<?xml version="1.0" encoding="UTF-8"?><svg id="a" xmlns="http://www.w3.org/2000/svg" viewBox="0 0 80 80"><rect x="21" y="19" width="38" height="42" rx="5" ry="5" fill="#fff"/><g><path d="M54,18H26c-3.31,0-6,2.69-6,6V56c0,3.31,2.69,6,6,6h28c3.31,0,6-2.69,6-6V24c0-3.31-2.69-6-6-6Zm4,38c0,2.21-1.79,4-4,4H26c-2.21,0-4-1.79-4-4V24c0-2.21,1.79-4,4-4h28c2.21,0,4,1.79,4,4V56Z" fill="#220e27"/><path d="M49.75,41h-15.5c-.28,0-.5,.22-.5,.5s.22,.5,.5,.5h15.5c.28,0,.5-.22,.5-.5s-.22-.5-.5-.5Z" fill="#220e27"/><path d="M31,41h-.75c-.28,0-.5,.22-.5,.5s.22,.5,.5,.5h.75c.28,0,.5-.22,.5-.5s-.22-.5-.5-.5Z" fill="#220e27"/><path d="M31,45h-.75c-.28,0-.5,.22-.5,.5s.22,.5,.5,.5h.75c.28,0,.5-.22,.5-.5s-.22-.5-.5-.5Z" fill="#220e27"/><path d="M31,49h-.75c-.28,0-.5,.22-.5,.5s.22,.5,.5,.5h.75c.28,0,.5-.22,.5-.5s-.22-.5-.5-.5Z" fill="#220e27"/><path d="M31,53h-.75c-.28,0-.5,.22-.5,.5s.22,.5,.5,.5h.75c.28,0,.5-.22,.5-.5s-.22-.5-.5-.5Z" fill="#220e27"/><path d="M49.75,45h-15.5c-.28,0-.5,.22-.5,.5s.22,.5,.5,.5h15.5c.28,0,.5-.22,.5-.5s-.22-.5-.5-.5Z" fill="#220e27"/><path d="M49.75,49h-15.5c-.28,0-.5,.22-.5,.5s.22,.5,.5,.5h15.5c.28,0,.5-.22,.5-.5s-.22-.5-.5-.5Z" fill="#220e27"/><path d="M49.75,53h-15.5c-.28,0-.5,.22-.5,.5s.22,.5,.5,.5h15.5c.28,0,.5-.22,.5-.5s-.22-.5-.5-.5Z" fill="#220e27"/></g><g><path d="M43.5,33h-7c-.55,0-1,.45-1,1s.45,1,1,1h7c.55,0,1-.45,1-1s-.45-1-1-1Z" fill="#1d59f9"/><circle cx="40" cy="28.5" r="2.5" fill="#1d59f9"/></g></svg>