<?xml version="1.0" encoding="UTF-8"?><svg id="a" xmlns="http://www.w3.org/2000/svg" viewBox="0 0 80 80"><path d="M50,17c2.21,0,4,1.72,4,3.83V59.17c0,2.12-1.79,3.83-4,3.83H30c-2.21,0-4-1.72-4-3.83V20.83c0-2.12,1.79-3.83,4-3.83h20Z" fill="#fff"/><rect x="31" y="54" width="18" height="5" rx="1" ry="1" fill="#1d59f9"/><g><path d="M50,16H30c-2.76,0-5,2.17-5,4.83V59.17c0,2.67,2.24,4.83,5,4.83h20c2.76,0,5-2.17,5-4.83V20.83c0-2.67-2.24-4.83-5-4.83Zm3,43.17c0,1.56-1.35,2.83-3,2.83H30c-1.65,0-3-1.27-3-2.83V20.83c0-1.56,1.35-2.83,3-2.83h20c1.65,0,3,1.27,3,2.83V59.17Z" fill="#220e27"/><path d="M48,41h-16c-.55,0-1,.45-1,1s.45,1,1,1h16c.55,0,1-.45,1-1s-.45-1-1-1Z" fill="#220e27"/><path d="M44,45h-8c-.55,0-1,.45-1,1s.45,1,1,1h8c.55,0,1-.45,1-1s-.45-1-1-1Z" fill="#220e27"/><path d="M40,38.5c4.14,0,7.5-3.36,7.5-7.5s-3.36-7.5-7.5-7.5-7.5,3.36-7.5,7.5,3.36,7.5,7.5,7.5Zm0-14c3.58,0,6.5,2.92,6.5,6.5s-2.92,6.5-6.5,6.5-6.5-2.92-6.5-6.5,2.92-6.5,6.5-6.5Z" fill="#220e27"/></g></svg>