<?xml version="1.0" encoding="UTF-8"?><svg id="a" xmlns="http://www.w3.org/2000/svg" viewBox="0 0 80 80"><path d="M46,20h-12c.71-2.31,3.13-4,6-4s5.29,1.69,6,4Z" fill="#1d59f9"/><path d="M60.73,33.33l-3.73-9.33v-2c0-.55-.44-1-1-1H24c-.56,0-1,.45-1,1v2l-3.73,9.33c-.17,.18-.27,.41-.27,.67v4c0,.55,.46,1,1.02,1h1.98v20c0,1.1,.87,2,2,2H56c1.13,0,2-.9,2-2v-20h1.98c.57,0,1.02-.45,1.02-1v-4c0-.26-.11-.49-.27-.67Z" fill="#fff"/><g><path d="M61.6,32.81l-3.6-9v-1.81c0-1.1-.9-2-2-2H24c-1.1,0-2,.9-2,2v1.81l-3.6,9c-.26,.35-.4,.76-.4,1.19v4c0,1.1,.91,2,2.02,2h.98v19c0,1.68,1.32,3,3,3H56c1.68,0,3-1.32,3-3v-19h.98c1.12,0,2.02-.9,2.02-2v-4c0-.43-.14-.84-.4-1.19Zm-2.08,.19h-5.53s0-.09-.01-.14l-1.96-6.86h4.7l2.8,7Zm.46,5H20v-3.99H60l-.02,3.99Zm-30.99-12h4.99l-1.96,6.86s-.01,.09-.01,.14h-4.99l1.96-6.86s.01-.09,.01-.14Zm22.02,0s0,.09,.01,.14l1.96,6.86h-4.99s0-.09-.01-.14l-1.96-6.86h4.99Zm-6,0s0,.09,.01,.14l1.96,6.86h-6.48v-7h4.51Zm-5.51,7h-6.48l1.96-6.86s.01-.09,.01-.14h4.51v7Zm-15.5-11H56v2.19l.32,.81H23.68l.32-.81v-2.19Zm-.72,4h4.7l-1.96,6.86s-.01,.09-.01,.14h-5.53l2.8-7Zm14.72,34h-10v-13.5c0-.83,.67-1.5,1.5-1.5h7c.83,0,1.5,.67,1.5,1.5v13.5Zm18,0h-17v-13.5c0-1.38-1.12-2.5-2.5-2.5h-7c-1.38,0-2.5,1.12-2.5,2.5v13.5h-3c-.57,0-1-.43-1-1v-20H57v20c0,.57-.43,1-1,1Z" fill="#220e27"/><path d="M52.5,44h-7c-1.38,0-2.5,1.12-2.5,2.5v4c0,1.38,1.12,2.5,2.5,2.5h7c1.38,0,2.5-1.12,2.5-2.5v-4c0-1.38-1.12-2.5-2.5-2.5Zm1.5,6.5c0,.83-.67,1.5-1.5,1.5h-7c-.83,0-1.5-.67-1.5-1.5v-4c0-.83,.67-1.5,1.5-1.5h7c.83,0,1.5,.67,1.5,1.5v4Z" fill="#220e27"/><path d="M31,51.5h-1c-.28,0-.5,.22-.5,.5s.22,.5,.5,.5h1c.28,0,.5-.22,.5-.5s-.22-.5-.5-.5Z" fill="#220e27"/></g></svg>