<?xml version="1.0" encoding="UTF-8"?><svg id="a" xmlns="http://www.w3.org/2000/svg" viewBox="0 0 80 80"><rect x="21" y="19" width="38" height="42" rx="5" ry="5" fill="#fff"/><circle cx="34.5" cy="30.5" r="4" fill="#1d59f9"/><g><path d="M54,18H26c-3.31,0-6,2.69-6,6V56c0,3.31,2.69,6,6,6h28c3.31,0,6-2.69,6-6V24c0-3.31-2.69-6-6-6Zm-32,6c0-2.21,1.79-4,4-4h28c2.21,0,4,1.79,4,4v30H22V24ZM54,60H26c-2.21,0-4-1.79-4-4v-1H58v1c0,2.21-1.79,4-4,4Z" fill="#220e27"/><path d="M45.58,36.47c-.09-.1-.22-.17-.36-.17-.14,0-.27,.05-.37,.15l-7.09,7.09-3.38-3.86c-.09-.1-.22-.17-.36-.17-.12,0-.27,.05-.37,.15l-8,8c-.2,.2-.2,.51,0,.71s.51,.2,.71,0l7.62-7.62,6.65,7.6c.1,.11,.24,.17,.38,.17,.12,0,.23-.04,.33-.12,.21-.18,.23-.5,.05-.71l-2.96-3.38,6.76-6.76,9.45,10.8c.1,.11,.24,.17,.38,.17,.12,0,.23-.04,.33-.12,.21-.18,.23-.5,.05-.71l-9.8-11.2Z" fill="#220e27"/></g></svg>