<?xml version="1.0" encoding="UTF-8"?><svg id="a" xmlns="http://www.w3.org/2000/svg" viewBox="0 0 80 80"><path d="M27.66,63c-2.57,0-4.66-2.13-4.66-4.74V21.74c0-2.62,2.09-4.74,4.66-4.74h18.71l10.64,10.89v30.36c0,2.62-2.09,4.74-4.66,4.74H27.66Z" fill="#fff"/><path d="M56,28h-6.36c-2.01,0-3.64-1.63-3.64-3.64,0-12.12,0,5.76,0-6.36" fill="#1d59f9"/><g><path d="M57.43,26.9l-10.06-10.3-.59-.6H27.66c-3.12,0-5.66,2.58-5.66,5.74V58.26c0,3.17,2.54,5.74,5.66,5.74h24.69c3.12,0,5.66-2.58,5.66-5.74V27.48l-.57-.58Zm-1.43,31.35c0,2.07-1.64,3.74-3.66,3.74H27.66c-2.02,0-3.66-1.68-3.66-3.74V21.74c0-2.07,1.64-3.74,3.66-3.74h18.29l10.06,10.3v29.96Z" fill="#220e27"/><path d="M28,24h10c.55,0,1-.45,1-1s-.45-1-1-1h-10c-.55,0-1,.45-1,1s.45,1,1,1Z" fill="#220e27"/><path d="M34,28c.55,0,1-.45,1-1s-.45-1-1-1h-6c-.55,0-1,.45-1,1s.45,1,1,1h6Z" fill="#220e27"/><path d="M45,56c-.55,0-1,.45-1,1s.45,1,1,1h6c.55,0,1-.45,1-1s-.45-1-1-1h-6Z" fill="#220e27"/><path d="M27.5,36c0,.28,.22,.5,.5,.5h23c.28,0,.5-.22,.5-.5s-.22-.5-.5-.5H28c-.28,0-.5,.22-.5,.5Z" fill="#220e27"/><path d="M51,39.5H28c-.28,0-.5,.22-.5,.5s.22,.5,.5,.5h23c.28,0,.5-.22,.5-.5s-.22-.5-.5-.5Z" fill="#220e27"/><path d="M51,43.5H28c-.28,0-.5,.22-.5,.5s.22,.5,.5,.5h23c.28,0,.5-.22,.5-.5s-.22-.5-.5-.5Z" fill="#220e27"/><path d="M41,47.5h-13c-.28,0-.5,.22-.5,.5s.22,.5,.5,.5h13c.28,0,.5-.22,.5-.5s-.22-.5-.5-.5Z" fill="#220e27"/></g></svg>