<?xml version="1.0" encoding="UTF-8"?>
<svg xmlns="http://www.w3.org/2000/svg" viewBox="0 0 80 80">
    <g>
        <path d="M16.35,45.65c-.93,.93-.72,2.49,.42,3.15l28.23,16.2-24-24-4.65,4.65Z" fill="#fff"/>
        <path d="M64.04,44.24l-4.24-4.24c-.94-.94-2.2-1.46-3.54-1.46-.24,0-.47,.02-.71,.05,.03-.23,.05-.47,.05-.71,0-1.34-.52-2.59-1.46-3.54L35.76,15.96c-.57-.57-1.32-.88-2.12-.88s-1.55,.31-2.12,.88l-4.89,4.89,.45,.68c1.04,1.58,.83,3.69-.51,5.03-.76,.75-1.76,1.17-2.83,1.17-.79,0-1.55-.23-2.21-.66l-.68-.45-4.89,4.89c-1.17,1.17-1.17,3.07,0,4.24l18.38,18.38c.94,.94,2.2,1.46,3.54,1.46,.24,0,.47-.02,.71-.05-.03,.23-.05,.47-.05,.71,0,1.34,.52,2.59,1.46,3.54l4.24,4.24c.57,.57,1.32,.88,2.12,.88s1.55-.31,2.12-.88l4.89-4.89-.45-.68c-1.04-1.58-.83-3.69,.51-5.03,.76-.75,1.76-1.17,2.83-1.17,.79,0,1.55,.23,2.21,.66l.68,.45,4.89-4.89c1.17-1.17,1.17-3.07,0-4.24Z" fill="#fff"/>
    </g>
    <g>
        <path d="M64.75,43.54l-4.24-4.24c-1.05-1.05-2.41-1.65-3.87-1.74,0,0,0-.02-.02-.02s-.02,0-.02-.02c-.09-1.46-.7-2.83-1.74-3.87L36.46,15.25c-.76-.76-1.76-1.17-2.83-1.17s-2.07,.42-2.83,1.17l-4.31,4.31-1.16,1.16,.9,1.36c.78,1.18,.62,2.77-.38,3.77-.57,.57-1.32,.88-2.12,.88-.59,0-1.16-.17-1.65-.5l-1.36-.9-1.16,1.16-4.31,4.31c-.76,.76-1.17,1.76-1.17,2.83s.42,2.07,1.17,2.83l4.44,4.44-4.04,4.05c-.67,.67-.98,1.58-.85,2.52,.12,.93,.66,1.74,1.48,2.21l28.23,16.2,.19-.33c.52,.24,1.08,.38,1.67,.38,1.07,0,2.07-.42,2.83-1.17l4.31-4.31,1.16-1.16-.9-1.36c-.78-1.18-.62-2.77,.38-3.77,.57-.57,1.32-.88,2.12-.88,.59,0,1.16,.17,1.65,.5l1.36,.9,1.16-1.16,4.31-4.31c1.56-1.56,1.56-4.1,0-5.66Zm-47.98,3.66c-.04-.31,.06-.62,.28-.84l4.04-4.05,12.54,12.54c1.05,1.05,2.43,1.67,3.91,1.75,.08,1.48,.69,2.85,1.75,3.91l.16,.16-22.18-12.73c-.27-.16-.45-.42-.49-.73Zm46.56,.58l-4.31,4.31c-.83-.55-1.8-.83-2.76-.83-1.28,0-2.56,.49-3.53,1.46-1.71,1.71-1.92,4.35-.64,6.29l-4.31,4.31c-.39,.39-.9,.59-1.41,.59s-1.02-.2-1.41-.59l-4.24-4.24c-1.07-1.07-1.39-2.6-.99-3.96l1.34-1.34c.2-.2,.2-.51,0-.71s-.51-.2-.71,0l-1.34,1.34c-.37,.11-.75,.18-1.13,.18-1.02,0-2.05-.39-2.83-1.17l-18.38-18.38c-.78-.78-.78-2.05,0-2.83l4.31-4.31c.83,.55,1.8,.83,2.76,.83,1.28,0,2.56-.49,3.53-1.46,1.71-1.71,1.92-4.35,.64-6.29l4.31-4.31c.39-.39,.9-.59,1.41-.59s1.02,.2,1.41,.59l18.38,18.38c1.07,1.07,1.39,2.6,.99,3.96l-1.34,1.34c-.2,.2-.2,.51,0,.71,.1,.1,.23,.15,.35,.15s.26-.05,.35-.15l1.34-1.34c.37-.11,.75-.18,1.13-.18,1.02,0,2.05,.39,2.83,1.17l4.24,4.24c.78,.78,.78,2.05,0,2.83Z" fill="#220e27"/>
        <path d="M43.89,49.55l-1.41,1.41c-.2,.2-.2,.51,0,.71,.1,.1,.23,.15,.35,.15s.26-.05,.35-.15l1.41-1.41c.2-.2,.2-.51,0-.71s-.51-.2-.71,0Z" fill="#220e27"/>
        <path d="M47.42,46.01l-1.41,1.41c-.2,.2-.2,.51,0,.71,.1,.1,.23,.15,.35,.15s.26-.05,.35-.15l1.41-1.41c.2-.2,.2-.51,0-.71s-.51-.2-.71,0Z" fill="#220e27"/>
        <path d="M50.96,42.48l-1.41,1.41c-.2,.2-.2,.51,0,.71,.1,.1,.23,.15,.35,.15s.26-.05,.35-.15l1.41-1.41c.2-.2,.2-.51,0-.71s-.51-.2-.71,0Z" fill="#220e27"/>
    </g>
    <g>
        <path d="M36.26,28.6c-.55,0-1,.45-1,1v14.14c0,.55,.45,1,1,1s1-.45,1-1v-14.14c0-.55-.45-1-1-1Z" fill="#1d59f9"/>
        <path d="M27.42,33.49c-.66,.66-1.03,1.54-1.03,2.48s.36,1.81,1.03,2.48c.66,.66,1.54,1.02,2.47,1.02s1.81-.36,2.47-1.02,1.03-1.54,1.03-2.48-.36-1.81-1.03-2.48c-1.32-1.32-3.63-1.32-4.95,0Zm3.54,3.54c-.57,.57-1.56,.57-2.12,0-.28-.28-.44-.66-.44-1.06s.16-.78,.44-1.06c.28-.28,.66-.44,1.06-.44s.78,.16,1.06,.44h0c.28,.28,.44,.66,.44,1.06s-.16,.78-.44,1.06Z" fill="#1d59f9"/>
        <path d="M45.1,33.49h0c-1.32-1.32-3.63-1.32-4.95,0-.66,.66-1.03,1.54-1.03,2.48s.36,1.81,1.03,2.48c.66,.66,1.54,1.02,2.47,1.02s1.81-.36,2.47-1.02c.66-.66,1.03-1.54,1.03-2.48s-.36-1.81-1.03-2.47Zm-1.41,3.54c-.57,.57-1.55,.57-2.12,0-.28-.28-.44-.66-.44-1.06s.16-.78,.44-1.06,.66-.44,1.06-.44,.78,.16,1.06,.44h0c.28,.28,.44,.66,.44,1.06s-.16,.78-.44,1.06Z" fill="#1d59f9"/>
    </g>
</svg>