<?xml version="1.0" encoding="UTF-8"?><svg id="a" xmlns="http://www.w3.org/2000/svg" viewBox="0 0 80 80"><path d="M33,23v-4h-7c-2.76,0-5,2.24-5,5V56c0,2.76,2.24,5,5,5h27c2.76,0,5-2.24,5-5V27h-21c-2.21,0-4-1.79-4-4Z" fill="#fff"/><g><path d="M58,27h-1v29c0,2.21-1.79,4-4,4H26c-2.21,0-4-1.79-4-4V24c0-2.21,1.79-4,4-4h7v-1c0-.35,.06-.68,.14-1h-7.14c-3.31,0-6,2.69-6,6V56c0,3.31,2.69,6,6,6h27c3.31,0,6-2.69,6-6V26.86c-.32,.08-.65,.14-1,.14Z" fill="#220e27"/><path d="M48.5,50.64c0-.55-.45-1-1-1H31.5c-.55,0-1,.45-1,1s.45,1,1,1h16c.55,0,1-.45,1-1Z" fill="#220e27"/><path d="M35.5,53.64c-.55,0-1,.45-1,1s.45,1,1,1h8c.55,0,1-.45,1-1s-.45-1-1-1h-8Z" fill="#220e27"/><path d="M29.5,35.64c0,2.3,.8,4.54,2.24,6.32h0c1.91,2.34,4.74,3.68,7.76,3.68s5.84-1.34,7.74-3.68h0c1.45-1.77,2.25-4.01,2.25-6.32,0-3.69-2.01-6.9-4.98-8.64h-2.51c3.74,1.09,6.49,4.55,6.49,8.64,0,1.87-.59,3.7-1.66,5.21-.06-.07-.13-.12-.19-.19-.11-.12-.23-.23-.35-.34-.14-.14-.29-.26-.44-.39-.12-.1-.25-.2-.38-.3-.16-.12-.32-.23-.48-.34-.13-.09-.27-.18-.4-.26-.17-.1-.34-.19-.52-.28-.14-.07-.28-.15-.42-.21-.18-.08-.37-.16-.56-.23-.14-.05-.28-.11-.43-.16-.2-.07-.41-.12-.61-.17-.14-.04-.27-.08-.41-.11-.23-.05-.47-.08-.7-.12-.12-.02-.24-.04-.36-.06-.36-.04-.72-.06-1.08-.06s-.73,.02-1.08,.06c-.12,.01-.23,.04-.35,.06-.24,.03-.47,.07-.71,.12-.14,.03-.27,.07-.41,.11-.21,.05-.42,.11-.62,.18-.14,.05-.28,.1-.42,.16-.19,.07-.38,.15-.57,.23-.14,.06-.27,.14-.41,.21-.18,.09-.36,.19-.53,.29-.13,.08-.26,.17-.39,.25-.17,.11-.33,.22-.49,.34-.13,.09-.25,.19-.37,.29-.15,.13-.31,.26-.45,.4-.12,.11-.23,.22-.34,.34-.06,.06-.13,.12-.19,.19-1.07-1.51-1.66-3.34-1.66-5.21,0-4.09,2.75-7.55,6.49-8.64-.62,0-1.2-.16-1.73-.41-3.4,1.6-5.77,5.05-5.77,9.05Zm10,9c-2.57,0-4.99-1.09-6.7-2.99,.07-.08,.14-.16,.21-.23,.11-.11,.21-.22,.33-.33,.13-.12,.26-.23,.39-.34,.12-.1,.23-.19,.35-.28,.14-.11,.29-.2,.43-.3,.12-.08,.24-.17,.37-.24,.15-.09,.31-.17,.47-.26,.13-.07,.25-.14,.38-.2,.17-.08,.34-.14,.51-.21,.13-.05,.26-.11,.39-.15,.18-.06,.37-.11,.55-.16,.13-.03,.25-.07,.38-.1,.21-.05,.42-.08,.64-.11,.11-.02,.21-.04,.32-.05,.32-.04,.65-.05,.98-.05s.66,.02,.98,.05c.11,.01,.21,.04,.32,.05,.21,.03,.43,.06,.64,.11,.13,.03,.25,.07,.38,.1,.19,.05,.37,.1,.56,.16,.13,.04,.26,.1,.38,.15,.17,.07,.34,.13,.51,.21,.13,.06,.25,.13,.38,.19,.16,.08,.32,.17,.47,.26,.12,.07,.24,.16,.36,.24,.15,.1,.29,.2,.44,.3,.12,.09,.23,.18,.34,.28,.14,.11,.27,.23,.4,.35,.11,.1,.21,.21,.31,.32,.07,.08,.15,.16,.22,.24-1.7,1.91-4.12,2.99-6.69,2.99Z" fill="#220e27"/><path d="M39.5,36.64c1.65,0,3-1.35,3-3s-1.35-3-3-3-3,1.35-3,3,1.35,3,3,3Zm0-5c1.1,0,2,.9,2,2s-.9,2-2,2-2-.9-2-2,.9-2,2-2Z" fill="#220e27"/></g><rect x="33" y="15" width="29" height="12" rx="4" ry="4" fill="#1d59f9"/><g><path d="M41.14,20.95c-.14,.18-.35,.31-.63,.42-.27,.1-.59,.16-.96,.16h-.92v2.21h-1.12v-5.56h2.05c.64,0,1.14,.16,1.49,.48,.35,.32,.52,.7,.52,1.13s-.14,.82-.42,1.16Zm-2.51-.29h.92c.28,0,.5-.07,.65-.22,.15-.15,.22-.34,.22-.59s-.07-.45-.22-.59-.36-.22-.65-.22h-.92v1.62Z" fill="#fff"/><path d="M43.2,18.18h1.12v4.71h1.78v.85h-2.91v-5.56Z" fill="#fff"/><path d="M47.65,21.61v-3.42h1.12v3.42c0,.38,.1,.67,.29,.87,.19,.2,.47,.29,.83,.29s.64-.1,.84-.29,.29-.49,.29-.87v-3.42h1.11v3.42c0,.7-.22,1.24-.66,1.62-.44,.38-.98,.57-1.61,.57s-1.16-.19-1.58-.57c-.42-.38-.64-.92-.64-1.62Z" fill="#fff"/><path d="M55.91,19c-.22,0-.4,.06-.55,.17-.14,.11-.21,.27-.21,.47s.05,.36,.16,.47c.1,.11,.24,.2,.41,.26,.17,.06,.36,.12,.56,.16,.2,.05,.4,.11,.61,.18,.2,.07,.39,.15,.56,.25,.17,.1,.31,.25,.41,.44,.1,.19,.16,.43,.16,.7,0,.46-.18,.85-.55,1.18s-.85,.49-1.45,.49-1.09-.14-1.46-.43-.56-.68-.56-1.2h1.19c.04,.49,.32,.73,.84,.73,.25,0,.46-.07,.61-.2s.22-.31,.22-.53-.1-.39-.29-.52c-.2-.13-.43-.22-.71-.29-.28-.06-.56-.14-.84-.23-.28-.09-.52-.25-.72-.47-.2-.23-.29-.52-.29-.9,0-.5,.18-.91,.55-1.21,.37-.3,.84-.45,1.41-.45s1.04,.13,1.39,.39c.35,.26,.54,.66,.57,1.2h-1.23c-.02-.21-.1-.38-.24-.51-.14-.12-.32-.19-.54-.19Z" fill="#fff"/></g></svg>