<?xml version="1.0" encoding="UTF-8"?><svg id="a" xmlns="http://www.w3.org/2000/svg" viewBox="0 0 80 80"><rect x="23" y="17" width="34" height="46" rx="5" ry="5" fill="#fff"/><g><path d="M52,16H28c-3.31,0-6,2.69-6,6V58c0,3.31,2.69,6,6,6h24c3.31,0,6-2.69,6-6V22c0-3.31-2.69-6-6-6Zm4,42c0,2.21-1.79,4-4,4H28c-2.21,0-4-1.79-4-4V22c0-2.21,1.79-4,4-4h24c2.21,0,4,1.79,4,4V58Z" fill="#220e27"/><path d="M37,31.5h-9c-.28,0-.5,.22-.5,.5s.22,.5,.5,.5h9c.28,0,.5-.22,.5-.5s-.22-.5-.5-.5Z" fill="#220e27"/><path d="M52,31h-2c-.55,0-1,.45-1,1s.45,1,1,1h2c.55,0,1-.45,1-1s-.45-1-1-1Z" fill="#220e27"/><path d="M52,35h-2c-.55,0-1,.45-1,1s.45,1,1,1h2c.55,0,1-.45,1-1s-.45-1-1-1Z" fill="#220e27"/><path d="M28,36.5h7c.28,0,.5-.22,.5-.5s-.22-.5-.5-.5h-7c-.28,0-.5,.22-.5,.5s.22,.5,.5,.5Z" fill="#220e27"/><path d="M37,39.5h-9c-.28,0-.5,.22-.5,.5s.22,.5,.5,.5h9c.28,0,.5-.22,.5-.5s-.22-.5-.5-.5Z" fill="#220e27"/><path d="M52,39h-2c-.55,0-1,.45-1,1s.45,1,1,1h2c.55,0,1-.45,1-1s-.45-1-1-1Z" fill="#220e27"/><path d="M52,43h-2c-.55,0-1,.45-1,1s.45,1,1,1h2c.55,0,1-.45,1-1s-.45-1-1-1Z" fill="#220e27"/><path d="M28,44.5h7c.28,0,.5-.22,.5-.5s-.22-.5-.5-.5h-7c-.28,0-.5,.22-.5,.5s.22,.5,.5,.5Z" fill="#220e27"/><path d="M37,47.5h-9c-.28,0-.5,.22-.5,.5s.22,.5,.5,.5h9c.28,0,.5-.22,.5-.5s-.22-.5-.5-.5Z" fill="#220e27"/><path d="M35,51.5h-7c-.28,0-.5,.22-.5,.5s.22,.5,.5,.5h7c.28,0,.5-.22,.5-.5s-.22-.5-.5-.5Z" fill="#220e27"/></g><g><path d="M42,23.5c0-.55-.45-1-1-1h-6c-.55,0-1,.45-1,1s.45,1,1,1h6c.55,0,1-.45,1-1Z" fill="#1d59f9"/><circle cx="29.5" cy="23.5" r="2" fill="#1d59f9"/><path d="M55.12,50.76l-5.65-2.82-.94,6.59-5.65-.94,.94,5.65-3.76,.94,1.82,1.82h10.12c2.21,0,4-1.79,4-4v-9l-.88,1.76Z" fill="#1d59f9"/></g></svg>